<svg width="10" height="10" viewBox="0 0 10 10" fill="none" xmlns="http://www.w3.org/2000/svg">
<path d="M10 3.99485C10 3.93251 10 3.87017 9.96875 3.839C9.90625 3.58966 9.71875 3.43382 9.46875 3.40265L7.71875 3.09096C7.125 2.99746 6.625 2.59227 6.34375 2.06241L5.5625 0.503985C5.46875 0.285806 5.25 0.161133 5 0.161133C4.75 0.161133 4.53125 0.285806 4.4375 0.503985L3.65625 2.06241C3.375 2.59227 2.875 2.96629 2.28125 3.09096L0.53125 3.40265C0.28125 3.43382 0.09375 3.62083 0.03125 3.839C0.03125 3.90134 0 3.96368 0 3.99485C0 4.18186 0.0625 4.3377 0.21875 4.46237L1.3125 5.39743C1.8125 5.83378 2.0625 6.48832 1.9375 7.14286L1.65625 8.73244C1.625 8.95062 1.71875 9.19997 1.90625 9.35581C2.03125 9.44932 2.15625 9.48049 2.28125 9.48049C2.375 9.48049 2.46875 9.44932 2.5625 9.41815L4.1875 8.63894C4.46875 8.51427 4.75 8.45193 5.03125 8.45193C5.3125 8.45193 5.625 8.51427 5.875 8.63894L7.5 9.41815C7.59375 9.44932 7.6875 9.48049 7.78125 9.48049C7.90625 9.48049 8.0625 9.44932 8.15625 9.35581C8.34375 9.19997 8.4375 8.98179 8.40625 8.73244L8.125 7.14286C8 6.48832 8.25 5.83378 8.75 5.39743L9.84375 4.46237C9.9375 4.3377 10 4.18186 10 3.99485ZM5 1.09948C5 1.09948 5.42755 1.51269 5.65625 1.9689L5.84375 2.34292C6.15625 2.99746 6.75 3.49615 7.46875 3.65199C7.8125 3.71433 7.9375 3.90134 8 4.11952C8.32785 5.18655 6.49456 8.4805 5.03125 7.50386C4 6.81559 5 1.09948 5 1.09948Z" fill="#FFAB43"/>
</svg>
