<svg width="12" height="8" viewBox="0 0 12 8" fill="none" xmlns="http://www.w3.org/2000/svg">
<path d="M8.28255 3.13547C6.72414 3.95898 4.89171 4.20309 3.77996 3.19166C3.00173 2.51737 2.61262 1.50594 1.88998 0.719276C1.66763 0.494514 1.38969 0.382133 1.11175 0.382133C0.833814 0.382133 0.555876 0.494514 0.333525 0.719276C0.111175 0.944038 0 1.22499 0 1.50594C0 1.7869 0.111175 2.06785 0.333525 2.29261C1.16734 3.13547 2.50144 3.47261 3.39084 4.31547C4.39142 5.21452 4.83612 7.12499 6.11463 7.12499C7.50432 7.12499 7.94902 4.98976 8.9496 4.03452C11.6092 1.52535 11.6734 1.47774 11.6734 1.47774C11.6734 1.47774 11.9001 1.15565 11.9513 0.915833C11.9948 0.712104 12.0346 0.572791 11.9513 0.382133C11.8861 0.232894 11.8112 0.157893 11.6734 0.0729611C11.2589 -0.18248 10.9049 0.287902 10.5616 0.634866C9.44989 1.75869 9.44665 2.52032 8.28255 3.13547Z" fill="#272727"/>
</svg>
