<svg width="20" height="18" viewBox="0 0 20 18" fill="none" xmlns="http://www.w3.org/2000/svg">
<path d="M6.95925 3.10665L3.38558 6.68032C2.13166 7.99693 2.13166 10.0659 3.38558 11.3825L4.20063 12.1976C5.14107 13.138 7.96238 15.1443 8.02508 13.4515C8.02508 12.3856 8.84013 11.5079 9.90596 11.5079H15.9248C17.1787 11.5079 18.1818 10.5048 18.1818 9.25085V8.74928C18.1818 7.49536 17.1787 6.49223 15.9248 6.49223H9.90596C8.84013 6.49223 8.02508 5.67718 8.02508 4.61135V3.48283C8.02508 2.98126 7.33542 2.73047 6.95925 3.10665ZM7.89969 0.912292C8.58934 0.912292 9.2163 1.47656 9.2163 2.22891V3.42013C9.2163 4.42326 10.0313 5.23831 11.0345 5.23831H17.931C19.0596 5.23831 20 6.17875 20 7.30728V10.6929C20 11.8214 19.0596 12.7618 17.931 12.7618H11.0345C10.0313 12.7618 9.2163 13.5769 9.2163 14.58V15.7712C9.2163 16.5863 8.58934 17.0878 7.89969 17.0878C7.58621 17.0878 7.21003 16.9624 6.95925 16.7117L0.564263 10.3167C0.188088 9.9405 0 9.43894 0 9.00007C0 8.4985 0.188088 8.05963 0.564263 7.68345L6.95925 1.28847C7.27273 1.03768 7.58621 0.912292 7.89969 0.912292Z" fill="#E9575A"/>
</svg>
