<svg width="16" height="16" viewBox="0 0 16 16" fill="none" xmlns="http://www.w3.org/2000/svg">
<path d="M10.4 7.17491C9.65 7.87491 8.2 9.27492 7.45 9.97492C6.45 10.9249 4.4 10.9249 3.4 10.0249C2.7 9.42491 2.35 8.52491 1.7 7.82491C1.5 7.62491 1.25 7.52491 1 7.52491C0.75 7.52491 0.5 7.62491 0.3 7.82491C0.1 8.02491 0 8.27491 0 8.52491C0 8.77491 0.1 9.02492 0.3 9.22492C1.05 9.97492 2.25 10.2749 3.05 11.0249C3.95 11.8249 4.35 13.5249 5.5 13.5249C6.75 13.5249 7.15 11.6249 8.05 10.7749C8.8 10.0749 10.35 8.62491 11.1 7.87491C12.45 6.57491 14.3 5.92491 15.65 4.62491C15.9 4.37491 16 4.07491 16 3.72491C16 3.42491 15.9 3.07491 15.65 2.82491C15.4 2.57491 15.1 2.47491 14.75 2.47491C14.45 2.47491 14.1 2.57491 13.85 2.82491C12.5 4.17491 11.7 5.92491 10.4 7.17491Z" fill="#272727"/>
</svg>
