<svg width="39" height="39" viewBox="0 0 39 39" fill="none" xmlns="http://www.w3.org/2000/svg">
<path d="M25.6668 4.65871C24.6043 4.37401 23.6056 4.62404 23.2173 6.07293L19.6715 19.3061C19.1798 21.1414 17.0788 22.0278 15.4954 20.9824C14.7037 20.4596 13.7636 20.1042 12.7977 19.8454C8.25787 18.629 3.78501 20.6398 2.77562 24.4069C1.76622 28.174 4.6344 32.1519 9.17425 33.3684C13.7141 34.5848 18.187 32.574 19.1964 28.8069L23.1304 14.1248C23.648 12.1929 25.8715 11.2358 27.6033 12.1139C30.7062 13.6701 34.1179 15.6195 33.1862 19.0968C33.0309 19.6764 33.3137 20.1663 33.8933 20.3216C34.4729 20.4769 34.9627 20.194 35.118 19.6145C36.3863 14.8814 28.2748 5.35752 25.6668 4.65871ZM5.87488 29.0679C4.85211 27.8621 4.31924 26.3735 4.70747 24.9246C5.43216 22.22 8.80275 20.8455 12.2801 21.7773C13.6324 22.1396 14.8811 22.8883 15.6918 23.7267C19.7967 27.7254 8.22913 31.8728 5.87488 29.0679Z" fill="#E9575A"/>
</svg>
