<svg width="16" height="16" viewBox="0 0 16 16" fill="none" xmlns="http://www.w3.org/2000/svg">
<path d="M14.1538 0H11.6923C9.01499 0 6.55574 0 4 0C4 0 2.76923 0 1.84615 0C0.771398 0 0 0.8 0 1.84615V14.1538C0 15.2 0.8 16 1.84615 16H14.1538C15.2 16 16 15.2 16 14.1538V1.84615C16 0.8 15.2 0 14.1538 0ZM14.7692 8.61538C14.7692 11.3846 13.2923 14.7692 8 14.7692H4.92308C3.26154 14.7692 1.23077 13.8462 1.23077 11.7538V4.30769C1.23077 0.923077 2.46154 1.23077 3.69231 1.23077C3.87692 1.23077 4.30769 1.23077 4.30769 1.23077C6.80168 1.23077 9.2329 1.23077 11.6923 1.23077C11.8154 1.23077 12.1846 1.23077 12.3077 1.23077C13.7231 1.23077 14.7692 1.16923 14.7692 2.46154V8.61538Z" fill="black"/>
</svg>
