<svg width="190" height="39" viewBox="0 0 190 39" fill="none" xmlns="http://www.w3.org/2000/svg">
<path d="M6.09015 16.7989H8.0916C9.72136 16.7989 10.4648 17.6281 10.4648 19.3722C10.4648 20.9448 9.77854 21.774 8.0916 21.774H6.09015V16.7989ZM6.09015 30.3802V24.9477H8.57767C12.2089 24.9477 14.3247 22.8033 14.3247 19.2293C14.3247 15.5123 12.5234 13.5394 8.20597 13.5394H2.2016V30.3802H6.09015ZM23.3132 26.2344C23.3132 27.521 22.1409 28.0071 21.1402 28.0071C20.2252 28.0071 19.682 27.4638 19.682 26.6919C19.682 25.5196 20.6255 24.8048 23.3132 24.8905V26.2344ZM27.0873 21.2307C27.0873 18.2857 25.2003 16.8561 21.9121 16.8561C18.8814 16.8561 16.5082 18.1714 16.3081 20.9734L20.1108 21.6882C20.168 20.4587 20.7113 19.7439 21.7692 19.7439C22.8271 19.7439 23.3132 20.4302 23.3132 21.5738V22.8319C18.2238 22.546 15.8506 24.1471 15.8506 27.0921C15.8506 29.3509 17.3946 30.7234 19.7391 30.7234C21.5405 30.7234 22.9701 30.1801 23.5705 28.5503C23.9994 29.98 25.0287 30.6376 26.7156 30.6376C27.6306 30.6376 28.3454 30.4946 28.8887 30.1515V27.3781C28.6313 27.4924 28.374 27.5782 28.0595 27.5782C27.459 27.5782 27.0873 27.2637 27.0873 26.3773V21.2307ZM29.8887 27.3209C30.4034 29.8084 32.2905 30.7234 35.55 30.7234C38.7809 30.7234 41.2112 29.5797 41.2112 26.6347C41.2112 24.3759 39.9532 22.9463 37.2655 22.3744L35.407 21.9741C34.5207 21.8026 34.1204 21.4309 34.1204 20.7733C34.1204 20.087 34.7208 19.6868 35.6072 19.6868C36.6937 19.6868 37.2941 20.0299 37.4371 21.0878L41.0111 20.5731C40.8109 17.9998 38.9239 16.8561 35.7787 16.8561C33.0625 16.8561 30.4034 17.7997 30.4034 21.145C30.4034 23.1464 31.4613 24.4617 33.7773 25.0621L35.7215 25.5196C36.8938 25.8055 37.4085 26.1486 37.4085 26.892C37.4085 27.664 36.6651 28.0357 35.6072 28.0357C34.3491 28.0357 33.3198 27.4924 33.0339 26.0628L29.8887 27.3209ZM42.6212 27.3209C43.1358 29.8084 45.0229 30.7234 48.2825 30.7234C51.5134 30.7234 53.9437 29.5797 53.9437 26.6347C53.9437 24.3759 52.6857 22.9463 49.998 22.3744L48.1395 21.9741C47.2531 21.8026 46.8528 21.4309 46.8528 20.7733C46.8528 20.087 47.4533 19.6868 48.3396 19.6868C49.4261 19.6868 50.0266 20.0299 50.1695 21.0878L53.7436 20.5731C53.5434 17.9998 51.6563 16.8561 48.5112 16.8561C45.7949 16.8561 43.1358 17.7997 43.1358 21.145C43.1358 23.1464 44.1938 24.4617 46.5097 25.0621L48.454 25.5196C49.6263 25.8055 50.1409 26.1486 50.1409 26.892C50.1409 27.664 49.3975 28.0357 48.3396 28.0357C47.0816 28.0357 46.0523 27.4924 45.7663 26.0628L42.6212 27.3209Z" fill="#0C0C09"/>
<path d="M71.2266 27.3209C71.7412 29.8084 73.6283 30.7234 76.8878 30.7234C80.1188 30.7234 82.5491 29.5797 82.5491 26.6347C82.5491 24.3759 81.291 22.9463 78.6034 22.3744L76.7449 21.9741C75.8585 21.8026 75.4582 21.4309 75.4582 20.7733C75.4582 20.087 76.0587 19.6868 76.945 19.6868C78.0315 19.6868 78.632 20.0299 78.7749 21.0878L82.349 20.5731C82.1488 17.9998 80.2617 16.8561 77.1166 16.8561C74.4003 16.8561 71.7412 17.7997 71.7412 21.145C71.7412 23.1464 72.7991 24.4617 75.1151 25.0621L77.0594 25.5196C78.2317 25.8055 78.7463 26.1486 78.7463 26.892C78.7463 27.664 78.0029 28.0357 76.945 28.0357C75.687 28.0357 74.6576 27.4924 74.3717 26.0628L71.2266 27.3209ZM93.5089 30.3802H96.8256V17.1706H92.9942V24.2615C92.9942 26.8062 91.9363 27.8355 90.621 27.8355C89.3058 27.8355 88.8197 26.9492 88.8197 25.3766V17.1706H84.9884V26.4631C84.9884 29.5225 86.6181 30.7234 88.9627 30.7234C91.393 30.7234 92.5939 29.7226 93.0514 27.9213L93.5089 30.3802ZM109.556 16.8847C106.068 16.6846 104.781 18.5145 104.21 20.8019L103.752 17.1706H100.435V30.3802H104.267V24.3473C104.267 21.631 106.125 20.8876 107.641 20.8876C108.241 20.8876 108.641 20.9448 109.127 21.1164L109.556 16.8847ZM116.929 27.7784C115.185 27.7784 114.241 26.4631 114.156 24.4331H122.304C122.419 23.8898 122.476 23.2894 122.476 22.7175C122.476 19.3151 120.646 16.8561 116.9 16.8561C112.926 16.8561 110.467 19.4294 110.467 23.9756C110.467 28.2358 113.069 30.7234 116.843 30.7234C119.445 30.7234 121.818 29.7798 122.505 27.0921L119.245 25.977C118.816 27.3781 117.958 27.7784 116.929 27.7784ZM114.27 22.3172C114.413 20.7733 115.328 19.6868 116.757 19.6868C118.13 19.6868 118.845 20.6303 118.845 21.8598C118.845 22.0313 118.845 22.1457 118.816 22.3172H114.27ZM136.98 27.0064H129.575V23.4895H136.094V20.2586H129.575V16.9133H136.98V13.5394H125.686V30.3802H136.98V27.0064ZM148.059 30.3802H152.29L148.001 23.6611L152.09 17.1706H147.916L146.858 19.0577C145.743 21.0878 145.6 21.774 145.6 21.774H145.485C145.485 21.774 145.314 21.0878 144.284 19.0291L143.284 17.1706H138.852L142.855 23.7754L138.595 30.3802H142.712L144.141 27.9785C145.171 26.263 145.342 25.5196 145.342 25.5196H145.457C145.457 25.5196 145.514 26.2344 146.572 27.9499L148.059 30.3802ZM160.731 26.2344C160.731 27.521 159.559 28.0071 158.558 28.0071C157.643 28.0071 157.1 27.4638 157.1 26.6919C157.1 25.5196 158.043 24.8048 160.731 24.8905V26.2344ZM164.505 21.2307C164.505 18.2857 162.618 16.8561 159.33 16.8561C156.299 16.8561 153.926 18.1714 153.726 20.9734L157.529 21.6882C157.586 20.4587 158.129 19.7439 159.187 19.7439C160.245 19.7439 160.731 20.4302 160.731 21.5738V22.8319C155.642 22.546 153.268 24.1471 153.268 27.0921C153.268 29.3509 154.812 30.7234 157.157 30.7234C158.958 30.7234 160.388 30.1801 160.988 28.5503C161.417 29.98 162.447 30.6376 164.133 30.6376C165.048 30.6376 165.763 30.4946 166.306 30.1515V27.3781C166.049 27.4924 165.792 27.5782 165.477 27.5782C164.877 27.5782 164.505 27.2637 164.505 26.3773V21.2307ZM179.859 19.7439C179.515 17.5423 178.057 16.8561 176.37 16.8561C174.426 16.8561 173.025 17.7139 172.31 19.7153L171.853 17.1706H168.593V30.3802H172.425V23.1178C172.425 20.8019 173.397 20.0585 174.598 20.0585C175.97 20.0585 176.342 21.002 176.342 22.4602V30.3802H180.173V23.0892C180.173 20.8019 181.174 20.0585 182.346 20.0585C183.69 20.0585 184.09 21.002 184.09 22.4602V30.3802H187.922V21.002C187.922 18.057 186.292 16.8561 184.147 16.8561C182.174 16.8561 180.573 17.7711 179.859 19.7439Z" fill="#272727"/>
<path d="M63.4869 31.0275H67.6066V26.2006H70.6196V23.157H67.6066V12.212H63.7636L54.694 23.4644V26.2006H63.4869V31.0275ZM60.5662 23.157C59.2442 23.157 58.537 23.2799 58.537 23.2799V23.157C58.537 23.157 59.3979 22.5421 60.2587 21.4045L62.3186 18.699C63.0565 17.746 63.5176 16.8236 63.5176 16.8236H63.6406C63.6406 16.8236 63.4869 18.2994 63.4869 19.7443V23.157H60.5662Z" fill="#E9575A"/>
</svg>
