<svg width="16" height="14" viewBox="0 0 16 14" fill="none" xmlns="http://www.w3.org/2000/svg">
<path d="M1.49068 8.54027C0.645963 8.54027 0 7.89431 0 7.04959C0 6.20486 0.645963 5.5589 1.49068 5.5589C1.78882 5.5589 2.03727 5.65828 2.28571 5.80735C2.93168 6.20486 3.62733 6.503 4.37267 6.55269C4.62112 6.55269 4.81988 6.55269 5.01863 6.55269H12.6211C13.2174 6.55269 13.5155 5.80735 13.118 5.40983L9.98758 2.2794C9.63975 1.93157 8.99379 1.63344 8.74534 1.38499C8.59627 1.23592 8.54658 1.03716 8.54658 0.838405C8.54658 0.490579 8.79503 0.0930634 9.29193 0.0930634C9.49068 0.0930634 9.68944 0.142753 9.83851 0.291821C10.087 0.540268 10.4348 1.23592 10.7329 1.53406L15.8509 6.65207C15.9503 6.75145 16 6.90052 16 6.9999C16 7.14896 15.9503 7.24834 15.8509 7.34772L13.8634 9.3353C11.3292 11.8695 11.1304 12.7639 10.9317 13.1614C10.7826 13.5092 10.4845 13.9067 9.78882 13.9067C9.09317 13.9067 8.54658 13.3601 8.54658 12.6645C8.54658 12.1179 8.9441 11.6707 9.34161 11.5216C9.78882 11.3726 11.1801 10.5775 13.1677 8.58996C13.5652 8.19244 13.2671 7.4471 12.6708 7.4471H4.96894C4.77019 7.4471 4.57143 7.4471 4.32298 7.4471C3.57764 7.49679 2.88199 7.79493 2.23602 8.19244C2.03727 8.44089 1.78882 8.54027 1.49068 8.54027Z" fill="white"/>
</svg>
