<svg width="18" height="20" viewBox="0 0 18 20" fill="none" xmlns="http://www.w3.org/2000/svg">
<path d="M16.5 1.25H12.125C11.375 1.25 11.125 0 10.25 0H7.75C6.875 0 6.625 1.25 5.875 1.25H1.5C0.8125 1.25 0.25 1.8125 0.25 2.5V5C0.25 5.6875 0.8125 6.25 1.5 6.25V16.375C1.5 18.375 3.125 20 5.125 20H5.875H7.125H10.875H12.125H12.875C14.875 20 16.5 18.375 16.5 16.375V6.25C17.1875 6.25 17.75 5.6875 17.75 5V2.5C17.75 1.8125 17.1875 1.25 16.5 1.25ZM2.75 15.625V7.4375C2.75 6.8125 3.25 6.25 3.9375 6.25H4.6875C5.3125 6.25 5.875 6.75 5.875 7.4375V17.6875C5.875 18.8125 2.75 18.0625 2.75 15.625ZM7.125 17.1875C7.125 14.375 7.125 7.4375 7.125 7.4375C7.125 6.8125 7.625 6.25 8.3125 6.25H9.75C10.375 6.25 10.9375 6.75 10.9375 7.4375C10.9375 7.4375 10.9375 13.4375 10.9375 15.75C10.875 17.875 7.125 19 7.125 17.1875ZM12.125 15.625C12.1875 13.125 12.125 7.4375 12.125 7.4375C12.125 6.8125 12.625 6.25 13.3125 6.25H14.0625C14.6875 6.25 15.25 6.75 15.25 7.4375C15.25 7.4375 15.25 10.875 15.25 12.5C15.25 15.75 12.0625 18.0625 12.125 15.625ZM10.875 5H2.75C2.0625 5 1.5 4.4375 1.5 3.75C1.5 3.0625 2.0625 2.5 2.75 2.5H15.25C15.9375 2.5 16.5 2.4375 16.5 3.125C16.5 4 13.0625 5 10.875 5Z" fill="#272727"/>
</svg>
