<svg width="24" height="24" viewBox="0 0 24 24" fill="none" xmlns="http://www.w3.org/2000/svg">
<path d="M8.28442 24C9.52706 24 10.5344 22.9926 10.5344 21.75C10.5344 20.5074 9.52706 19.5 8.28442 19.5C7.04178 19.5 6.03442 20.5074 6.03442 21.75C6.03442 22.9926 7.04178 24 8.28442 24Z" fill="#272727"/>
<path d="M17.2844 24C18.5271 24 19.5344 22.9926 19.5344 21.75C19.5344 20.5074 18.5271 19.5 17.2844 19.5C16.0418 19.5 15.0344 20.5074 15.0344 21.75C15.0344 22.9926 16.0418 24 17.2844 24Z" fill="#272727"/>
<path d="M22.5344 4.5H5.65942C3.18442 4.5 3.63442 2.175 3.03442 1.2C2.50942 0.45 1.75942 0 0.784424 0C0.334424 0 0.0344238 0.375 0.0344238 0.75C0.0344238 1.05 0.184424 1.275 0.409424 1.425C1.60942 2.025 1.98442 4.425 2.13442 5.25L4.23442 15.3C4.45942 16.425 5.50942 17.25 6.70942 17.25H19.5344C20.8094 17.25 21.9344 16.35 22.2344 15.075L23.9594 6.3C23.9594 6.225 23.9594 6.075 23.9594 6C24.0344 5.25 23.4344 4.5 22.5344 4.5ZM21.9344 8.775C21.1094 12.9 15.5594 15.75 11.3594 15.75H9.93443C7.53442 15.75 5.50942 14.1 5.05942 11.775L4.30942 8.325C4.08442 7.125 4.98442 6 6.18442 6H19.6094C20.1344 6 20.6594 6.225 21.1094 6.525C21.4094 6.75 21.5594 6.975 21.7094 7.275C22.0094 7.725 22.0844 8.25 21.9344 8.775Z" fill="#272727"/>
</svg>
