<svg width="16" height="12" viewBox="0 0 16 12" fill="none" xmlns="http://www.w3.org/2000/svg">
<path d="M10.4 5.17491C9.65 5.87491 8.2 7.27492 7.45 7.97492C6.45 8.92492 4.4 8.92491 3.4 8.02491C2.7 7.42491 2.35 6.52491 1.7 5.82491C1.5 5.62491 1.25 5.52491 1 5.52491C0.75 5.52491 0.5 5.62491 0.3 5.82491C0.1 6.02491 0 6.27491 0 6.52491C0 6.77491 0.1 7.02492 0.3 7.22492C1.05 7.97492 2.25 8.27491 3.05 9.02491C3.95 9.82491 4.35 11.5249 5.5 11.5249C6.75 11.5249 7.15 9.62491 8.05 8.77491C8.8 8.07491 10.35 6.62491 11.1 5.87491C12.45 4.57491 14.3 3.92491 15.65 2.62491C15.9 2.37491 16 2.07491 16 1.72491C16 1.42491 15.9 1.07491 15.65 0.824915C15.4 0.574915 15.1 0.474915 14.75 0.474915C14.45 0.474915 14.1 0.574915 13.85 0.824915C12.5 2.17491 11.7 3.92491 10.4 5.17491Z" fill="#272727"/>
</svg>
