<svg width="12" height="12" viewBox="0 0 12 12" fill="none" xmlns="http://www.w3.org/2000/svg">
<path d="M0.192303 10.7189C0.106894 10.847 0.064189 11.0178 0.064189 11.1459C0.064189 11.3167 0.106894 11.4875 0.192303 11.6157C0.363121 11.8719 0.619349 12 0.918282 12C1.1318 12 1.34533 11.9146 1.51615 11.7438C2.15672 11.1032 2.41294 10.2064 3.01081 9.60854L4.84711 7.77224C5.48768 7.13167 6.51259 7.13167 7.15316 7.77224L7.5375 8.15658C8.5197 9.13879 8.81864 10.6762 9.80084 11.6157C10.0571 11.8719 10.3987 12 10.6976 12C11.082 12 11.509 11.8292 11.7653 11.4448C11.8934 11.2313 11.9788 10.9751 11.9788 10.7189C11.9788 10.4626 11.8934 10.2064 11.7653 9.99288C10.9539 8.75445 9.16027 8.54093 8.09266 7.47331L7.75102 7.13167C7.11045 6.4911 7.11045 5.46619 7.75102 4.82562L9.24568 3.33096C10.0144 2.56228 11.2955 2.26335 11.8507 1.32384C11.9361 1.19573 11.9788 1.02491 11.9788 0.896797C11.9788 0.725979 11.9361 0.55516 11.8507 0.427046C11.6798 0.170818 11.4236 0.0427046 11.1247 0.0427046C10.9112 0.0427046 10.6976 0.128114 10.5268 0.298932C9.75814 1.06762 9.33109 2.09253 8.56241 2.81851L7.15316 4.22776C6.51259 4.86833 5.48768 4.86833 4.84711 4.22776L3.22433 2.60498C2.49835 1.879 2.19942 0.683274 1.30262 0.128114C1.0464 -0.0427046 0.662054 -0.0427046 0.405826 0.128114C0.149598 0.298932 0.0214844 0.55516 0.0214844 0.854093C0.0214844 1.06762 0.106894 1.28114 0.277712 1.45196C1.0464 2.22064 2.07131 2.64769 2.83999 3.41637L4.24924 4.82562C4.88981 5.46619 4.88981 6.4911 4.24924 7.13167L2.24212 9.13879C1.64426 9.77936 0.619349 9.99288 0.192303 10.7189Z" fill="#272727"/>
</svg>
