<svg width="16" height="16" viewBox="0 0 16 16" fill="none" xmlns="http://www.w3.org/2000/svg">
<path d="M15 11C14.45 11 14 11.45 14 12C14 12.8 14.35 15 12 15H8H4C1.65 15 2 12.8 2 12C2 11.45 1.55 11 1 11C0.45 11 0 11.45 0 12C0 13 0.9 16 4 16H8H12C15.1 16 16 13 16 12C16 11.45 15.55 11 15 11Z" fill="white"/>
<path d="M4.99922 9.7C4.99922 9.7 6.44922 11.15 6.99922 11.7C7.44922 12.15 7.29922 13 7.99922 13C8.69922 13 8.54922 12.15 8.99922 11.7C9.59922 11.1 10.9992 9.7 10.9992 9.7C11.3492 9.35 12.0492 9.05 12.2492 8.8C12.3992 8.65 12.4492 8.45 12.4492 8.25C12.4492 7.75 12.0992 7.5 11.6992 7.5C11.4992 7.5 11.2992 7.6 11.1492 7.7C10.8992 7.95 10.5492 8.65 10.2492 8.95L9.59922 9.6C9.14922 10.05 8.44922 9.75 8.44922 9.1V4.5C8.44922 3.4 8.94922 1.85 8.94922 1C8.94922 0.45 8.49922 0 7.94922 0C7.39922 0 6.94922 0.45 6.94922 1C6.94922 1.85 7.44922 3.4 7.44922 4.5V9.15C7.44922 9.75 6.69922 10.05 6.29922 9.65L5.64922 9C5.29922 8.65 4.99922 8 4.74922 7.75C4.59922 7.6 4.39922 7.55 4.19922 7.55C3.84922 7.55 3.44922 7.8 3.44922 8.3C3.44922 8.5 3.49922 8.7 3.64922 8.85C3.94922 9.05 4.64922 9.35 4.99922 9.7Z" fill="white"/>
</svg>
