<svg width="16" height="16" viewBox="0 0 16 16" fill="none" xmlns="http://www.w3.org/2000/svg">
<path d="M14 2H2C0.9 2 0 2.9 0 4V12C0 13.1 0.9 14 2 14H14C15.1 14 16 13.1 16 12V4C16 2.9 15.1 2 14 2ZM3 3H8H13C13.9 3 14.5 3.6 14.5 4.3C14.5 4.9 14.35 5.65 13.4 5.95C12.05 6.4 8.35 7.65 8.35 7.65C8.25 7.7 8.15 7.7 8.05 7.7C7.95 7.7 7.85 7.7 7.75 7.65C7.75 7.65 4.05 6.4 2.7 5.95C1.75 5.65 1.6 4.9 1.6 4.3C1.5 3.6 2.1 3 3 3ZM15 9C15 11.1 11.9 13 8.5 13H2.95C1.85 13 1 12.1 1 11.05V8.6C1 7.6 2 6.85 2.95 7.2L3.8 7.5C4.05 7.6 4.3 7.65 4.5 7.75C5.45 8.15 6.2 8.8 6.85 9.55C7.1 9.85 7.5 10.05 7.95 10.05C8.4 10.05 8.8 9.85 9.05 9.55C9.75 8.8 10.5 8.15 11.4 7.75C11.65 7.65 11.9 7.55 12.1 7.5L12.95 7.2C13.9 6.9 14.9 7.6 14.9 8.6V9H15Z" fill="black"/>
</svg>
