<svg width="16" height="14" viewBox="0 0 16 14" fill="none" xmlns="http://www.w3.org/2000/svg">
<path d="M11.75 0C11.3 0 10.9 0.05 10.5 0.2C8.75 0.75 9.1 0.85 8 0.85C6.9 0.85 7.25 0.75 5.5 0.2C5.1 0.1 4.7 0 4.25 0C1.9 0 0 1.9 0 4.25C0 9.25 3.4 11.15 5.4 12.4C6.25 12.95 7 14 8 14C9 14 9.75 12.9 10.6 12.4C12.6 11.15 16 9.25 16 4.25C16 1.9 14.1 0 11.75 0ZM3.55 9.9C2.2 8.75 1 7.05 1 4.25C1 2.45 2.45 1 4.25 1C4.6 1 4.9 1.05 5.2 1.15C6.3 1.5 6.85 3.1 8 3.1C9.15 3.1 9.7 1.5 10.8 1.15C11.1 1.05 11.45 1 11.75 1C13.55 1 15 2.45 15 4.25C15 8.5 6.75 12.65 3.55 9.9Z" fill="#E9575A"/>
</svg>
