<svg width="16" height="16" viewBox="0 0 16 16" fill="none" xmlns="http://www.w3.org/2000/svg">
<path d="M15.7019 6.65856L9.98758 0.894586C9.44099 0.348002 8.69565 0.0498657 7.95031 0.0498657C7.20497 0.0498657 6.45963 0.348002 5.91304 0.894586L0.198758 6.65856C0.0993789 6.75794 0 6.85732 0 7.00639C0 7.30452 0.347826 7.50328 0.546584 7.50328C1.34161 7.50328 2.03727 8.14924 2.03727 8.99396V14.4598C2.03727 15.3045 2.68323 15.9505 3.52795 15.9505H8H12.472C13.2671 15.9505 13.9627 15.3045 13.9627 14.4598V8.99396C13.9627 8.14924 14.6087 7.50328 15.4534 7.50328C15.6522 7.50328 16 7.30452 16 7.00639C15.9006 6.85732 15.8012 6.75794 15.7019 6.65856ZM6.95652 14.112C6.95652 13.4163 6.95652 11.4784 6.95652 11.4784C6.95652 10.9319 7.40373 10.4846 7.95031 10.4846C8.49689 10.4846 8.9441 10.9319 8.9441 11.4784C8.9441 11.4784 8.9441 12.8201 8.9441 13.3169C8.9441 14.3107 6.95652 15.0561 6.95652 14.112ZM13.6149 6.60887C13.6149 6.9567 13.5155 7.30452 13.3168 7.60266C13.0683 8.00018 12.9193 8.44738 12.9193 8.99396C12.9193 8.99396 12.9193 11.0312 12.9193 11.7269C12.9193 13.9629 9.98758 14.3604 9.98758 13.2176C9.98758 12.6213 9.98758 11.4784 9.98758 11.4784C9.98758 10.3853 9.09317 9.49086 8 9.49086C6.90683 9.49086 6.01242 10.3853 6.01242 11.4784C6.01242 11.4784 6.01242 13.0188 6.01242 13.7145C6.01242 14.907 3.08075 15.6523 3.08075 13.6648C3.08075 12.5219 3.08075 9.04365 3.08075 9.04365C3.08075 8.54676 2.93168 8.04986 2.68323 7.65235C2.48447 7.35421 2.38509 7.00639 2.38509 6.65856C2.38509 6.26104 2.53416 5.86353 2.8323 5.5157L6.70807 1.63993C7.0559 1.2921 7.55279 1.09334 8.04969 1.09334C8.54658 1.09334 9.04348 1.2921 9.3913 1.63993L13.2671 5.5157C13.4658 5.81384 13.6149 6.21136 13.6149 6.60887ZM8.9441 6.0126C8.9441 6.55918 8.49689 7.00639 7.95031 7.00639C7.40373 7.00639 6.95652 6.55918 6.95652 6.0126C6.95652 5.46601 7.40373 5.01881 7.95031 5.01881C8.49689 5.01881 8.9441 5.46601 8.9441 6.0126Z" fill="#E9575A"/>
</svg>
