<svg width="12" height="16" viewBox="0 0 12 16" fill="none" xmlns="http://www.w3.org/2000/svg">
<path d="M8.6 9.85C8.05 9.45 7.75 8.75 7.75 8C7.75 7.25 8.1 6.55 8.6 6.15C10.05 5.05 11.5 2.75 11.5 1C11.5 0.45 11.05 0 10.5 0H6H1.5C0.95 0 0.5 0.45 0.5 1C0.5 2.8 1.9 5.05 3.4 6.15C3.95 6.55 4.25 7.25 4.25 8C4.25 8.75 3.9 9.45 3.4 9.85C1.95 10.95 0.5 13.25 0.5 15C0.5 15.55 0.95 16 1.5 16H6H10.5C11.05 16 11.5 15.55 11.5 15C11.5 13.2 10.1 10.95 8.6 9.85ZM2 2.85C1.6 2 2.2 1 3.2 1H6H8.8C9.75 1 10.4 2 10 2.85C9.7 3.5 9.25 4.15 8.7 4.7C7.8 5.7 4.85 6.1 3.85 5.25C3.15 4.6 2.45 3.75 2 2.85ZM6 14.3C2.1 14.7 1.9 13.35 2.3 12.65C2.8 11.9 3.3 11.15 3.95 10.65C4.6 10.15 5 9.45 5.15 8.65C5.2 8.25 5.55 8 5.95 8C6.35 8 6.7 8.25 6.75 8.65C6.9 9.45 7.35 10.15 7.95 10.65C8.25 10.85 8.5 11.15 8.8 11.45C9.75 12.35 9.85 13.9 6 14.3Z" fill="#E9575A"/>
</svg>
