<svg width="16" height="16" viewBox="0 0 16 16" fill="none" xmlns="http://www.w3.org/2000/svg">
<path d="M8 13C7.8 13 7.6 13.05 7.45 13.1C5.65 13.8 2.9 13.15 1.95 11.5C1.3 10.4 1 9.2 1 8C1 7 1.25 5.95 1.65 5C1.85 4.6 3 4.55 3 5C3 5.3 3.2 5.5 3.5 5.5C3.8 5.5 4 5.3 4 5V2.5C4 1.7 3.75 1.5 3 1.5H0.5C0.2 1.5 0 1.7 0 2C0 2.3 0.2 2.5 0.5 2.5C1.2 2.5 1.1 3.9 0.8 4.55C0.25 5.65 0 6.85 0 8C0 10.05 0.8 12.1 2.35 13.65C3.85 15.15 5.85 16 8 16C8.85 16 9.5 15.35 9.5 14.5C9.5 13.65 8.85 13 8 13Z" fill="#E9575A"/>
<path d="M15.5 13.5C14.8 13.5 14.9 12.1 15.2 11.45C15.75 10.35 16 9.15 16 8C16 5.95 15.2 3.9 13.65 2.35C12.15 0.85 10.15 0 8 0C7.15 0 6.5 0.65 6.5 1.5C6.5 2.35 7.15 3 8 3C8.2 3 8.4 2.95 8.55 2.9C10.35 2.2 13.1 2.85 14.05 4.5C14.7 5.6 15 6.8 15 8C15 9 14.75 10.05 14.35 11C14.15 11.4 13 11.45 13 11C13 10.7 12.8 10.5 12.5 10.5C12.2 10.5 12 10.7 12 11V13.5C12 14.3 12.25 14.5 13 14.5H15.5C15.8 14.5 16 14.3 16 14C16 13.7 15.8 13.5 15.5 13.5Z" fill="#E9575A"/>
</svg>
