<svg width="20" height="20" viewBox="0 0 20 20" fill="none" xmlns="http://www.w3.org/2000/svg">
<path d="M18.6667 8C17.0667 8 15.6 8.66667 14 8.66667H11.3333H8.66667H6C4.4 8.66667 2.93333 8 1.33333 8C0.6 8 0 8.6 0 9.33333C0 10.0667 0.6 10.6667 1.33333 10.6667C2.93333 10.6667 4.4 10 6 10C6 10 7.2 10 8.66667 10H11.3333C12.8 10 14 10 14 10C15.6 10 17.0667 10.6667 18.6667 10.6667C19.4 10.6667 20 10.0667 20 9.33333C20 8.6 19.4 8 18.6667 8Z" fill="black"/>
<path d="M1.33333 2.66667C2.93333 2.66667 4.4 2 6 2C6 2 7.2 2 8.66667 2H11.3333C12.8 2 14 2 14 2C15.6 2 17.0667 2.66667 18.6667 2.66667C19.4 2.66667 20 2.06667 20 1.33333C20 0.6 19.4 0 18.6667 0C17.0667 0 15.6 0.666667 14 0.666667H11.3333H8.66667H6C4.4 0.666667 2.93333 0 1.33333 0C0.6 0 0 0.6 0 1.33333C0 2.06667 0.6 2.66667 1.33333 2.66667Z" fill="black"/>
<path d="M18 16C16.2 16 14.4667 17.3333 12.6667 17.3333H6C4.4 17.3333 2.93333 16.6667 1.33333 16.6667C0.6 16.6667 0 17.2667 0 18C0 18.7333 0.6 19.3333 1.33333 19.3333C2.93333 19.3333 4.4 18.6667 6 18.6667H12.6667C14.4667 18.6667 16.2 20 18 20C19.1333 20 20 19.1333 20 18C20 16.8667 19.1333 16 18 16Z" fill="black"/>
</svg>
