<svg width="12" height="12" viewBox="0 0 12 12" fill="none" xmlns="http://www.w3.org/2000/svg">
<path d="M3.5154 1.32857C5.57254 2.18571 8.48683 4.02857 9.90112 5.1C10.0725 5.22857 10.2011 5.52857 10.1583 5.78571C10.0725 6.12857 9.77254 6.47143 9.55826 6.6C8.57254 7.28571 7.02969 8.27143 5.57254 8.95714C3.47254 9.94286 1.50112 10.1143 1.37254 8.91429C1.32969 8.14286 1.28683 7.15714 1.28683 5.95714C1.28683 4.24286 1.37254 2.95714 1.45826 2.1C1.50112 1.84286 1.75826 1.5 2.14397 1.32857C2.6154 1.2 3.2154 1.2 3.5154 1.32857ZM1.84397 0C1.54397 0 1.1154 0.214286 0.901116 0.557143C0.815402 0.728571 0.429688 2.57143 0.429688 6C0.429688 9.42857 0.772545 11.2714 0.901116 11.4429C1.1154 11.7857 1.58683 12 1.84397 12C4.1154 12 10.844 7.62857 11.444 6.55714C11.5297 6.38571 11.5725 6.17143 11.5725 6C11.5725 5.82857 11.5297 5.61429 11.444 5.44286C10.844 4.37143 4.1154 0 1.84397 0Z" fill="#272727"/>
</svg>
