<svg width="20" height="20" viewBox="0 0 20 20" fill="none" xmlns="http://www.w3.org/2000/svg">
<path d="M18.4669 16.1875C17.7794 16.0625 17.0919 15.875 16.5919 15.5C16.1544 15.125 15.5919 14.625 14.7794 13.8125C13.7169 12.75 14.4669 10.5625 14.7169 9.5625C14.9044 8.875 15.0294 8.1875 15.0294 7.5C15.0294 3.375 11.6544 0 7.52942 0C5.46692 0 3.59192 0.8125 2.21692 2.1875C0.841919 3.5625 0.0294189 5.4375 0.0294189 7.5C0.0294189 11.625 3.40442 15 7.52942 15C8.27942 15 8.96692 14.875 9.59192 14.6875C10.2169 14.5 11.2794 14.1875 12.2169 14.1875C12.8419 14.1875 13.4044 14.3125 13.8419 14.75C14.7169 15.625 15.2794 16.1875 15.5919 16.625C16.0294 17.1875 16.0919 17.9375 16.2794 18.625C16.5294 19.4375 17.2169 20 18.0919 20C18.5919 20 19.0919 19.8125 19.4044 19.4375C19.7169 19.125 19.9669 18.625 19.9669 18.125C20.0294 17.125 19.3419 16.375 18.4669 16.1875ZM4.52942 12.9375C2.59192 11.875 1.27942 9.8125 1.27942 7.4375C1.27942 5.75 1.90442 4.1875 3.09192 3C4.27942 1.8125 5.84192 1.1875 7.52942 1.1875C10.6544 1.1875 13.2794 3.5 13.7169 6.5C14.2794 10.1875 7.84192 14.75 4.52942 12.9375Z" fill="#272727"/>
</svg>
