<svg width="16" height="16" viewBox="0 0 16 16" fill="none" xmlns="http://www.w3.org/2000/svg">
<path d="M16 6.67539C16 6.57539 16 6.47539 15.95 6.42539C15.85 6.02539 15.55 5.77539 15.15 5.72539L12.35 5.22539C11.4 5.07539 10.6 4.42539 10.15 3.57539L8.9 1.07539C8.75 0.725391 8.4 0.525391 8 0.525391C7.6 0.525391 7.25 0.725391 7.1 1.07539L5.85 3.57539C5.4 4.42539 4.6 5.02539 3.65 5.22539L0.85 5.72539C0.45 5.77539 0.15 6.07539 0.05 6.42539C0.05 6.52539 0 6.62539 0 6.67539C0 6.97539 0.1 7.22539 0.35 7.42539L2.1 8.92539C2.9 9.62539 3.3 10.6754 3.1 11.7254L2.65 14.2754C2.6 14.6254 2.75 15.0254 3.05 15.2754C3.25 15.4254 3.45 15.4754 3.65 15.4754C3.8 15.4754 3.95 15.4254 4.1 15.3754L6.7 14.1254C7.15 13.9254 7.6 13.8254 8.05 13.8254C8.5 13.8254 9 13.9254 9.4 14.1254L12 15.3754C12.15 15.4254 12.3 15.4754 12.45 15.4754C12.65 15.4754 12.9 15.4254 13.05 15.2754C13.35 15.0254 13.5 14.6754 13.45 14.2754L13 11.7254C12.8 10.6754 13.2 9.62539 14 8.92539L15.75 7.42539C15.9 7.22539 16 6.97539 16 6.67539ZM4 12.3254C4 11.2254 3.85 9.07539 2.75 8.17539C2.05 7.57539 2.35 6.42539 3.3 6.27539L3.85 6.17539C5.1 5.97539 6.2 5.12539 6.75 4.02539L7.05 3.42539C7.25 3.02539 7.65 2.82539 8.05 2.82539C8.45 2.82539 8.85 3.02539 9.05 3.42539L9.35 4.02539C9.85 5.07539 10.8 5.87539 11.95 6.12539C12.5 6.22539 12.7 6.52539 12.8 6.87539C13.75 9.97539 4.05 15.3754 4 12.3254Z" fill="#E9575A"/>
</svg>
