<svg width="20" height="24" viewBox="0 0 20 24" fill="none" xmlns="http://www.w3.org/2000/svg">
<path d="M11.1619 12H8.91186C4.18686 12 0.286865 15.9 0.286865 20.625V21.45C0.286865 22.875 1.41186 24 2.83686 24H17.1619C18.5869 24 19.7119 22.875 19.7119 21.45V20.625C19.7869 15.9 15.8869 12 11.1619 12ZM6.51186 22.5C2.91186 22.5 1.63687 20.775 1.93686 19.275C2.61186 15.975 5.46186 13.5 8.91186 13.5H11.1619C13.6369 13.5 15.7369 14.775 17.0869 16.65C18.7369 18.975 12.8119 22.5 6.51186 22.5Z" fill="#272727"/>
<path d="M10.0369 10.5C12.9619 10.5 15.2869 8.175 15.2869 5.25C15.2869 2.325 12.9619 0 10.0369 0C7.11187 0 4.78687 2.325 4.78687 5.25C4.78687 8.175 7.11187 10.5 10.0369 10.5ZM10.0369 1.5C11.6869 1.5 13.1119 2.625 13.6369 4.125C14.3869 6.375 9.43687 9.525 7.78687 8.25C6.88687 7.5 6.28687 6.45 6.28687 5.25C6.28687 3.15 7.93687 1.5 10.0369 1.5Z" fill="#272727"/>
</svg>
